<svg width="64" height="64" viewBox="0 0 64 64" fill="none" xmlns="http://www.w3.org/2000/svg">
<path d="M51 8H13C11.1451 8.00528 9.36769 8.74447 8.05608 10.0561C6.74447 11.3677 6.00528 13.1451 6 15V39C6.00528 40.8549 6.74447 42.6323 8.05608 43.9439C9.36769 45.2555 11.1451 45.9947 13 46H18V56L29.715 46.2325C29.8949 46.0822 30.1219 46 30.3563 46H51C52.8549 45.9947 54.6323 45.2555 55.9439 43.9439C57.2555 42.6323 57.9947 40.8549 58 39V15C57.9947 13.1451 57.2555 11.3677 55.9439 10.0561C54.6323 8.74447 52.8549 8.00528 51 8V8Z" stroke="#EDE641" stroke-width="4" stroke-linejoin="round"/>
<path d="M20 31C22.2091 31 24 29.2091 24 27C24 24.7909 22.2091 23 20 23C17.7909 23 16 24.7909 16 27C16 29.2091 17.7909 31 20 31Z" fill="#EDE641"/>
<path d="M32 31C34.2091 31 36 29.2091 36 27C36 24.7909 34.2091 23 32 23C29.7909 23 28 24.7909 28 27C28 29.2091 29.7909 31 32 31Z" fill="#EDE641"/>
<path d="M44 31C46.2091 31 48 29.2091 48 27C48 24.7909 46.2091 23 44 23C41.7909 23 40 24.7909 40 27C40 29.2091 41.7909 31 44 31Z" fill="#EDE641"/>
</svg>
