<svg width="56" height="52" viewBox="0 0 56 52" fill="none" xmlns="http://www.w3.org/2000/svg">
<path d="M47 2H9C7.14511 2.00528 5.36769 2.74447 4.05608 4.05608C2.74447 5.36769 2.00528 7.14511 2 9V33C2.00528 34.8549 2.74447 36.6323 4.05608 37.9439C5.36769 39.2555 7.14511 39.9947 9 40H14V50L25.715 40.2325C25.8949 40.0822 26.1219 40 26.3563 40H47C48.8549 39.9947 50.6323 39.2555 51.9439 37.9439C53.2555 36.6323 53.9947 34.8549 54 33V9C53.9947 7.14511 53.2555 5.36769 51.9439 4.05608C50.6323 2.74447 48.8549 2.00528 47 2V2Z" stroke="#EDE641" stroke-width="4" stroke-linejoin="round"/>
</svg>
