<svg width="59" height="72" viewBox="0 0 59 72" fill="none" xmlns="http://www.w3.org/2000/svg">
<path d="M23.3381 27.3086C20.6864 27.3086 18.0943 28.0949 15.8896 29.5681C13.6848 31.0412 11.9664 33.1351 10.9517 35.5849C9.93696 38.0347 9.67146 40.7304 10.1888 43.331C10.7061 45.9317 11.983 48.3206 13.8579 50.1956C15.7329 52.0706 18.1218 53.3475 20.7225 53.8648C23.3232 54.3821 26.0189 54.1166 28.4686 53.1018C30.9184 52.0871 33.0123 50.3687 34.4855 48.164C35.9586 45.9592 36.7449 43.3671 36.7449 40.7155C36.7447 37.1598 35.3321 33.7499 32.8179 31.2356C30.3037 28.7214 26.8937 27.3088 23.3381 27.3086V27.3086Z" stroke="#EDE641" stroke-width="4" stroke-miterlimit="10"/>
<path d="M33.269 50.6484L42.7034 60.0829" stroke="#EDE641" stroke-width="4" stroke-miterlimit="10" stroke-linecap="round"/>
<path d="M36.6272 19.1271L37.7202 22.6225C37.7613 22.7541 37.8675 22.8414 37.9863 22.8414C38.105 22.8414 38.2113 22.7541 38.2524 22.6225L39.3453 19.1271C40.23 16.2974 42.1212 14.0668 44.5201 13.0235L47.4836 11.7343C47.595 11.6859 47.669 11.5606 47.669 11.4205C47.669 11.2804 47.595 11.1551 47.4836 11.1067L44.52 9.8175C42.121 8.77399 40.2299 6.54356 39.3453 3.71404L38.2524 0.21867C38.2113 0.0872712 38.105 0 37.9863 0C37.8675 0 37.7613 0.0872712 37.7202 0.21867L36.6272 3.71404C35.7425 6.54356 33.8515 8.77399 31.4525 9.8175L28.4888 11.1067C28.3774 11.1551 28.3034 11.2804 28.3034 11.4205C28.3034 11.5606 28.3774 11.6859 28.4888 11.7343L31.4523 13.0235C33.8514 14.0668 35.7425 16.2972 36.6272 19.1271Z" fill="#EDE641"/>
<path d="M57.9966 25.8995L56.4007 25.1989C55.109 24.6318 54.0908 23.4196 53.6147 21.8818L53.026 19.9823C53.004 19.9107 52.9467 19.8633 52.8828 19.8633C52.8188 19.8633 52.7615 19.9107 52.7395 19.9821L52.151 21.8813C51.6747 23.4192 50.6563 24.6316 49.3646 25.1987L47.7688 25.8993C47.7088 25.9255 47.669 25.9937 47.669 26.0698C47.669 26.146 47.7088 26.2142 47.7688 26.2404L49.3644 26.9412C50.6563 27.5083 51.6747 28.7207 52.151 30.2588L52.7395 32.1583C52.7615 32.2296 52.8188 32.2771 52.8828 32.2771C52.9467 32.2771 53.004 32.2296 53.026 32.1583L53.6147 30.2586C54.091 28.7205 55.1092 27.5083 56.4011 26.9414L57.9968 26.2406C58.0567 26.2144 58.0966 26.1462 58.0966 26.0701C58.0966 25.994 58.0567 25.9257 57.9966 25.8995Z" fill="#EDE641"/>
<path d="M10.3276 65.6222L8.73177 64.9216C7.44004 64.3545 6.42187 63.1423 5.94569 61.6044L5.35703 59.705C5.33502 59.6334 5.27773 59.5859 5.21379 59.5859C5.14986 59.5859 5.09257 59.6334 5.07056 59.7047L4.48208 61.604C4.00572 63.1418 2.98736 64.3542 1.69563 64.9214L0.0997875 65.622C0.0398392 65.6482 0 65.7164 0 65.7925C0 65.8686 0.0398392 65.9368 0.0997875 65.963L1.69544 66.6639C2.98736 67.231 4.00572 68.4434 4.48208 69.9815L5.07056 71.8809C5.09257 71.9523 5.14986 71.9997 5.21379 71.9997C5.27773 71.9997 5.33502 71.9523 5.35703 71.8809L5.94569 69.9812C6.42206 68.4432 7.44023 67.231 8.73215 66.6641L10.3278 65.9632C10.3877 65.937 10.4276 65.8688 10.4276 65.7927C10.4276 65.7166 10.3877 65.6484 10.3276 65.6222Z" fill="#EDE641"/>
</svg>
